# xmcd
#
# Track frame offsets: 
#        150
#        15335
#        32015
#        51592
#        67992
#        87125
#        105360
#        131215
#        146530
#        166107
#        185225
#        200315
#        219125
#
# Disc length: 3186 seconds
#
# Revision: 7
# Processed by: cddbd v1.5.2PL0 Copyright (c) Steve Scherf et al.
# Submitted via: ExactAudioCopyFreeDBPlugin 1.0
#
DISCID=ac0c700d
DTITLE=Randy Crawford - Play Mode
DYEAR=2000
DGENRE=Blues
TTITLE0=Wild Is The Wind
TTITLE1=Merry Go Round
TTITLE2=Free The Child
TTITLE3=Permanent
TTITLE4=Sweetest Thing
TTITLE5=Fire And Rain
TTITLE6=When I Get Over You
TTITLE7=Alfie
TTITLE8=When The Evening Comes
TTITLE9=All I Do
TTITLE10=When Will I Be Free Of Love's Taboo
TTITLE11=Tell It To Your Heart
TTITLE12=I Get A Little Burned
EXTD=YEAR: 2000
EXTT0=
EXTT1=
EXTT2=
EXTT3=
EXTT4=
EXTT5=
EXTT6=
EXTT7=
EXTT8=
EXTT9=
EXTT10=
EXTT11=
EXTT12=
PLAYORDER=
